<?xml version="1.0" encoding="utf-8"?>
<!-- Generator: Adobe Illustrator 24.3.0, SVG Export Plug-In . SVG Version: 6.00 Build 0)  -->
<svg version="1.1" id="Layer_7" xmlns="http://www.w3.org/2000/svg" xmlns:xlink="http://www.w3.org/1999/xlink" x="0px" y="0px"
	 viewBox="0 0 799.89 291.91" enable-background="new 0 0 799.89 291.91" xml:space="preserve">
<g>
	
		<polyline fill="none" stroke="#FFFFFF" stroke-width="18" stroke-linecap="round" stroke-linejoin="round" stroke-miterlimit="10" points="
		17.43,15.26 17.43,87.26 146.3,87.26 146.3,156.51 	"/>
	
		<line fill="none" stroke="#08CDFF" stroke-width="18" stroke-linecap="round" stroke-miterlimit="10" x1="146.3" y1="15.26" x2="146.3" y2="46.82"/>
	
		<line fill="none" stroke="#08CDFF" stroke-width="18" stroke-linecap="round" stroke-miterlimit="10" x1="17.43" y1="156.51" x2="17.43" y2="124.17"/>
	
		<polyline fill="none" stroke="#FFFFFF" stroke-width="18" stroke-linecap="round" stroke-linejoin="round" stroke-miterlimit="10" points="
		229.22,156.51 229.22,15.86 359.02,15.86 359.02,156.51 	"/>
	
		<line fill="none" stroke="#08CDFF" stroke-width="18" stroke-linecap="round" stroke-miterlimit="10" x1="231.22" y1="87.79" x2="301.01" y2="87.79"/>
	
		<polyline fill="none" stroke="#FFFFFF" stroke-width="18" stroke-linecap="round" stroke-linejoin="round" stroke-miterlimit="10" points="
		571.42,19.3 442.55,19.3 442.55,156.77 571.42,156.77 	"/>
	
		<line fill="none" stroke="#FFFFFF" stroke-width="18" stroke-linecap="round" stroke-miterlimit="10" x1="655.89" y1="87.04" x2="655.89" y2="17.01"/>
	
		<polyline fill="none" stroke="#FFFFFF" stroke-width="18" stroke-linecap="round" stroke-linejoin="round" stroke-miterlimit="10" points="
		782.84,17.01 782.84,87.18 656.61,87.18 782.84,157.8 	"/>
	
		<line fill="none" stroke="#08CDFF" stroke-width="18" stroke-linecap="round" stroke-linejoin="round" stroke-miterlimit="10" x1="655.89" y1="157.8" x2="655.89" y2="125.24"/>
	<circle fill="#FFFFFF" cx="17.68" cy="17.68" r="17.68"/>
	<circle fill="#FFFFFF" cx="17.68" cy="86.73" r="17.68"/>
	<circle fill="#01CFFF" cx="17.68" cy="155.78" r="17.68"/>
	<circle fill="#01CFFF" cx="145.7" cy="17.68" r="17.68"/>
	<circle fill="#FFFFFF" cx="145.7" cy="86.73" r="17.68"/>
	<circle fill="#FFFFFF" cx="145.7" cy="155.78" r="17.68"/>
	<circle fill="#FFFFFF" cx="229.28" cy="17.68" r="17.68"/>
	<circle fill="#01CFFF" cx="229.28" cy="86.73" r="17.68"/>
	<circle fill="#FFFFFF" cx="229.28" cy="155.78" r="17.68"/>
	<circle fill="#FFFFFF" cx="358.35" cy="17.68" r="17.68"/>
	<circle fill="#FFFFFF" cx="358.35" cy="86.73" r="17.68"/>
	<circle fill="#FFFFFF" cx="358.35" cy="155.78" r="17.68"/>
	<circle fill="#FFFFFF" cx="442.55" cy="17.68" r="17.68"/>
	<circle fill="#FFFFFF" cx="442.55" cy="86.73" r="17.68"/>
	<circle fill="#FFFFFF" cx="442.55" cy="155.78" r="17.68"/>
	<circle fill="#FFFFFF" cx="570.34" cy="17.68" r="17.68"/>
	<circle fill="#01CFFF" cx="570.34" cy="86.73" r="17.68"/>
	<circle fill="#FFFFFF" cx="570.34" cy="155.78" r="17.68"/>
	<circle fill="#FFFFFF" cx="655.72" cy="17.68" r="17.68"/>
	<circle fill="#FFFFFF" cx="655.72" cy="86.73" r="17.68"/>
	<circle fill="#01CFFF" cx="655.72" cy="155.78" r="17.68"/>
	<circle fill="#FFFFFF" cx="782.21" cy="17.68" r="17.68"/>
	<circle fill="#FFFFFF" cx="782.21" cy="86.73" r="17.68"/>
	<circle fill="#FFFFFF" cx="782.21" cy="155.78" r="17.68"/>
	<g>
		<path fill="#FFFFFF" d="M43.85,291.91v-66.87h8.41v66.87H43.85z"/>
		<path fill="#FFFFFF" d="M122.27,291.91v-66.87h8.41v66.87H122.27z"/>
		<path fill="#FFFFFF" d="M200.7,291.91v-66.87h8.41v66.87H200.7z"/>
		<path fill="#FFFFFF" d="M270.34,232.68v-7.64h106.99v7.64h-49.29v59.23h-8.41v-59.23H270.34z"/>
		<path fill="#01CFFF" d="M418.03,268.98v-7.64h39.36v7.64H418.03z"/>
		<path fill="#FFFFFF" d="M528.5,291.91v-66.87h59.97c6.04,0,10.48,1.56,13.35,4.68c2.86,3.12,4.29,7.26,4.29,12.42
			c0,3.63-0.72,6.8-2.17,9.5c-1.45,2.71-3.61,4.67-6.5,5.87c4.23,0.89,7.38,2.85,9.44,5.88c2.06,3.03,3.09,6.7,3.09,11.03
			c0,5.22-1.44,9.44-4.33,12.66c-2.89,3.22-7.4,4.82-13.54,4.82H528.5z M599.07,243.86c0-3.38-0.97-6.08-2.9-8.12
			s-5.07-3.06-9.4-3.06h-51.46v22.26h51.92C595.12,254.94,599.07,251.25,599.07,243.86z M590.4,262.01h-55.09v22.26h55.09
			c8.2,0,12.3-3.73,12.3-11.18C602.7,265.7,598.6,262.01,590.4,262.01z"/>
		<path fill="#FFFFFF" d="M747.32,291.91v-29.61h-68.17v29.61h-6.81v-66.87h6.81v29.61h68.17v-29.61h6.81v66.87H747.32z"/>
	</g>
</g>
<g>
</g>
<g>
</g>
<g>
</g>
<g>
</g>
<g>
</g>
<g>
</g>
<g>
</g>
<g>
</g>
<g>
</g>
<g>
</g>
<g>
</g>
<g>
</g>
<g>
</g>
<g>
</g>
<g>
</g>
</svg>
